# xmcd CD database file
#
# Track frame offsets:
#	150
#	24447
#	43822
#	62640
#	93892
#	109427
#	128570
#	155452
#	181712
#	201697
#	224775
#	238517
#	255830
#	279835
#
# Disc length: 4005 seconds
#
# Revision: 0
# Processed by: cddbd v1.5.2PL0 Copyright (c) Steve Scherf et al.
# Submitted via: CDex 1.81
#
DISCID=c20fa30e
DTITLE=European Jazz Trio - Best Selection Box [Disc1] Wood
DYEAR=2004
DGENRE=Jazz
TTITLE0=Sonata
TTITLE1=Etude No.17
TTITLE2=Black Bird
TTITLE3=La Vie En Rose
TTITLE4=Turkish March
TTITLE5=Clair De Lune
TTITLE6=Lullaby Of The Leaves
TTITLE7=Peer Gynt ~ Morning
TTITLE8=Nocturne No.4
TTITLE9=Norwegian Wood
TTITLE10=Symphony No.40
TTITLE11=Last Tango In Paris
TTITLE12=Scarborough Fair
TTITLE13=Chateau En Suede
EXTD=YEAR: 2004
EXTT0=
EXTT1=
EXTT2=
EXTT3=
EXTT4=
EXTT5=
EXTT6=
EXTT7=
EXTT8=
EXTT9=
EXTT10=
EXTT11=
EXTT12=
EXTT13=
PLAYORDER=
